<svg width='200' height='200' fill="#000000" xmlns="http://www.w3.org/2000/svg" viewBox="0 0 90.28 78.9" x="0px" y="0px"><title></title><path d="M42.3,44.8H48a2.5,2.5,0,0,0,2.5-2.5V19.56a2.5,2.5,0,1,0-5,0V39.8H42.3a2.5,2.5,0,0,0,0,5Z"/><path d="M65,17.06a2.5,2.5,0,0,0-2.5,2.5v5.69a2.5,2.5,0,1,0,5,0V19.56A2.5,2.5,0,0,0,65,17.06Z"/><path d="M25.24,17.06a2.5,2.5,0,0,0-2.5,2.5v5.69a2.5,2.5,0,1,0,5,0V19.56A2.5,2.5,0,0,0,25.24,17.06Z"/><path d="M59.35,51.17a2.45,2.45,0,0,0-1.26.34,2.51,2.51,0,0,0-1.24,2.16v3.17H33.43V53.67a2.5,2.5,0,0,0-5,0v2.55a3.25,3.25,0,0,0,0,.72A5.2,5.2,0,0,0,30,60.32a5.13,5.13,0,0,0,2.08,1.27,4.73,4.73,0,0,0,1.42.25H56.58a5.15,5.15,0,0,0,1.63-.26,5.27,5.27,0,0,0,3.64-5v-2.9A2.49,2.49,0,0,0,59.35,51.17Z"/><path d="M88,5.83H85.28A.85.85,0,0,1,84.45,5V2.5A2.5,2.5,0,0,0,82,0H8.33a2.5,2.5,0,0,0-2.5,2.5V5A.85.85,0,0,1,5,5.83H2.24A2.5,2.5,0,0,0,0,8.32V70.58a2.5,2.5,0,0,0,2.24,2.49H5a.85.85,0,0,1,.83.83v2.5a2.5,2.5,0,0,0,2.5,2.5H82a2.5,2.5,0,0,0,2.5-2.5V73.9a.85.85,0,0,1,.83-.83H88a2.5,2.5,0,0,0,2.24-2.49V8.32A2.5,2.5,0,0,0,88,5.83ZM85.28,68.37a5.67,5.67,0,0,0-5.53,5.53H10.53A5.67,5.67,0,0,0,5,68.37V10.53A5.67,5.67,0,0,0,10.53,5H79.75a5.67,5.67,0,0,0,5.53,5.53Z"/></svg>